<mxfile host="app.diagrams.net" modified="2023-03-17T15:47:26.882Z" agent="5.0 (Macintosh; Intel Mac OS X 10_15_7) AppleWebKit/537.36 (KHTML, like Gecko) Chrome/111.0.0.0 Safari/537.36" etag="mKr-jNmdC2ppcFZBVl9O" version="21.0.6" type="github">
  <diagram name="Pagina-1" id="2gnQn5dsZddcRE8RK6tl">
    <mxGraphModel dx="2074" dy="720" grid="1" gridSize="10" guides="1" tooltips="1" connect="1" arrows="1" fold="1" page="1" pageScale="1" pageWidth="827" pageHeight="1169" math="0" shadow="0">
      <root>
        <mxCell id="0" />
        <mxCell id="1" parent="0" />
        <mxCell id="HYb9EO3i7QYgC3tbqvvC-1" value="" style="rounded=0;whiteSpace=wrap;html=1;" parent="1" vertex="1">
          <mxGeometry x="120" y="40" width="560" height="800" as="geometry" />
        </mxCell>
        <mxCell id="HYb9EO3i7QYgC3tbqvvC-2" value="&lt;b&gt;&lt;font style=&quot;font-size: 16px;&quot;&gt;OUTSOURCING HUB&lt;/font&gt;&lt;/b&gt;" style="text;html=1;align=center;verticalAlign=middle;resizable=0;points=[];autosize=1;strokeColor=none;fillColor=none;" parent="1" vertex="1">
          <mxGeometry x="324" y="50" width="180" height="30" as="geometry" />
        </mxCell>
        <mxCell id="tnNtf27b05TNXS0torjV-16" style="edgeStyle=none;rounded=0;orthogonalLoop=1;jettySize=auto;html=1;entryX=0.018;entryY=0.668;entryDx=0;entryDy=0;startArrow=none;startFill=0;strokeColor=default;endArrow=none;endFill=0;strokeWidth=1;entryPerimeter=0;" parent="1" target="tnNtf27b05TNXS0torjV-5" edge="1">
          <mxGeometry relative="1" as="geometry">
            <mxPoint x="20" y="360" as="sourcePoint" />
          </mxGeometry>
        </mxCell>
        <mxCell id="tnNtf27b05TNXS0torjV-20" style="edgeStyle=none;rounded=0;orthogonalLoop=1;jettySize=auto;html=1;entryX=0;entryY=0.5;entryDx=0;entryDy=0;strokeColor=default;strokeWidth=1;startArrow=none;startFill=0;endArrow=none;endFill=0;" parent="1" target="tnNtf27b05TNXS0torjV-19" edge="1">
          <mxGeometry relative="1" as="geometry">
            <mxPoint x="20" y="360" as="sourcePoint" />
          </mxGeometry>
        </mxCell>
        <mxCell id="tnNtf27b05TNXS0torjV-27" style="edgeStyle=none;rounded=0;orthogonalLoop=1;jettySize=auto;html=1;entryX=0;entryY=0.5;entryDx=0;entryDy=0;strokeColor=default;strokeWidth=1;fontSize=10;startArrow=none;startFill=0;endArrow=none;endFill=0;" parent="1" target="tnNtf27b05TNXS0torjV-22" edge="1">
          <mxGeometry relative="1" as="geometry">
            <mxPoint x="20" y="360" as="sourcePoint" />
          </mxGeometry>
        </mxCell>
        <mxCell id="HYb9EO3i7QYgC3tbqvvC-3" value="Client Company" style="shape=umlActor;verticalLabelPosition=bottom;verticalAlign=top;html=1;outlineConnect=0;fontSize=16;" parent="1" vertex="1">
          <mxGeometry x="-30" y="330" width="30" height="60" as="geometry" />
        </mxCell>
        <mxCell id="tnNtf27b05TNXS0torjV-5" value="&lt;font style=&quot;font-size: 10px;&quot;&gt;SIGN IN&lt;/font&gt;" style="ellipse;whiteSpace=wrap;html=1;fillColor=#f8cecc;strokeColor=#b85450;" parent="1" vertex="1">
          <mxGeometry x="160" y="215" width="90" height="40" as="geometry" />
        </mxCell>
        <mxCell id="tnNtf27b05TNXS0torjV-7" value="&lt;font style=&quot;font-size: 9px;&quot;&gt;INCORRECT&lt;br style=&quot;font-size: 9px;&quot;&gt;CREDENTIALS&lt;/font&gt;" style="ellipse;whiteSpace=wrap;html=1;fillColor=#dae8fc;strokeColor=#6c8ebf;fontSize=9;strokeWidth=1;fillStyle=hatch;" parent="1" vertex="1">
          <mxGeometry x="452" y="190" width="100" height="50" as="geometry" />
        </mxCell>
        <mxCell id="tnNtf27b05TNXS0torjV-14" value="&amp;lt;&amp;lt;extends&amp;gt;&amp;gt;" style="endArrow=block;endFill=0;html=1;rounded=0;dashed=1;exitX=0;exitY=0.5;exitDx=0;exitDy=0;entryX=1;entryY=0.5;entryDx=0;entryDy=0;" parent="1" source="tnNtf27b05TNXS0torjV-7" target="tnNtf27b05TNXS0torjV-5" edge="1">
          <mxGeometry x="-0.0053" width="160" relative="1" as="geometry">
            <mxPoint x="320" y="270" as="sourcePoint" />
            <mxPoint x="480" y="270" as="targetPoint" />
            <Array as="points">
              <mxPoint x="310" y="200" />
            </Array>
            <mxPoint as="offset" />
          </mxGeometry>
        </mxCell>
        <mxCell id="tnNtf27b05TNXS0torjV-19" value="&lt;font style=&quot;font-size: 10px;&quot;&gt;SIGN UP&lt;/font&gt;" style="ellipse;whiteSpace=wrap;html=1;fillColor=#f8cecc;strokeColor=#b85450;" parent="1" vertex="1">
          <mxGeometry x="160" y="280" width="90" height="40" as="geometry" />
        </mxCell>
        <mxCell id="tnNtf27b05TNXS0torjV-22" value="&lt;font style=&quot;font-size: 10px;&quot;&gt;VIEW&amp;nbsp;&lt;br&gt;PROFILE&lt;/font&gt;" style="ellipse;whiteSpace=wrap;html=1;fillColor=#f8cecc;strokeColor=#b85450;" parent="1" vertex="1">
          <mxGeometry x="150" y="380" width="90" height="40" as="geometry" />
        </mxCell>
        <mxCell id="tnNtf27b05TNXS0torjV-23" value="&lt;font style=&quot;font-size: 9px;&quot;&gt;EDIT&lt;br style=&quot;font-size: 9px;&quot;&gt;PERSONAL INFO&lt;br style=&quot;font-size: 9px;&quot;&gt;&lt;/font&gt;" style="ellipse;whiteSpace=wrap;html=1;fillColor=#dae8fc;strokeColor=#6c8ebf;fontSize=9;strokeWidth=1;fillStyle=hatch;" parent="1" vertex="1">
          <mxGeometry x="479" y="370" width="96" height="50" as="geometry" />
        </mxCell>
        <mxCell id="tnNtf27b05TNXS0torjV-28" value="&lt;font style=&quot;font-size: 9px;&quot;&gt;RETRIEVE&lt;br style=&quot;font-size: 9px;&quot;&gt;PASSWORD&lt;/font&gt;" style="ellipse;whiteSpace=wrap;html=1;fillColor=#dae8fc;strokeColor=#6c8ebf;fontSize=9;strokeWidth=1;fillStyle=hatch;" parent="1" vertex="1">
          <mxGeometry x="160" y="90" width="100" height="50" as="geometry" />
        </mxCell>
        <mxCell id="tnNtf27b05TNXS0torjV-29" value="&amp;lt;&amp;lt;extends&amp;gt;&amp;gt;" style="endArrow=block;endFill=0;html=1;rounded=0;dashed=1;exitX=0.5;exitY=1;exitDx=0;exitDy=0;entryX=0.5;entryY=0;entryDx=0;entryDy=0;" parent="1" source="tnNtf27b05TNXS0torjV-28" target="tnNtf27b05TNXS0torjV-5" edge="1">
          <mxGeometry x="-0.0091" width="160" relative="1" as="geometry">
            <mxPoint x="190" y="230" as="sourcePoint" />
            <mxPoint x="120" y="195" as="targetPoint" />
            <Array as="points" />
            <mxPoint as="offset" />
          </mxGeometry>
        </mxCell>
        <mxCell id="tnNtf27b05TNXS0torjV-34" value="&amp;lt;&amp;lt;extends&amp;gt;&amp;gt;" style="endArrow=block;endFill=0;html=1;rounded=0;dashed=1;exitX=0;exitY=0.5;exitDx=0;exitDy=0;entryX=1;entryY=0.5;entryDx=0;entryDy=0;" parent="1" source="tnNtf27b05TNXS0torjV-23" target="tnNtf27b05TNXS0torjV-22" edge="1">
          <mxGeometry x="-0.0012" width="160" relative="1" as="geometry">
            <mxPoint x="350.00000000000273" y="185" as="sourcePoint" />
            <mxPoint x="260" y="245" as="targetPoint" />
            <Array as="points" />
            <mxPoint as="offset" />
          </mxGeometry>
        </mxCell>
        <mxCell id="pXMp4Kn1TM848HMNzgxB-1" value="&amp;lt;&amp;lt;include&amp;gt;&amp;gt;" style="html=1;verticalAlign=bottom;labelBackgroundColor=none;endArrow=open;endFill=0;dashed=1;rounded=0;exitX=0.744;exitY=0.1;exitDx=0;exitDy=0;exitPerimeter=0;entryX=0.067;entryY=0.776;entryDx=0;entryDy=0;entryPerimeter=0;" parent="1" source="tnNtf27b05TNXS0torjV-5" target="pXMp4Kn1TM848HMNzgxB-2" edge="1">
          <mxGeometry x="-0.0328" y="11" width="160" relative="1" as="geometry">
            <mxPoint x="288" y="140" as="sourcePoint" />
            <mxPoint x="450" y="130" as="targetPoint" />
            <mxPoint x="-1" as="offset" />
          </mxGeometry>
        </mxCell>
        <mxCell id="pXMp4Kn1TM848HMNzgxB-2" value="&lt;font style=&quot;font-size: 9px;&quot;&gt;VERIFY PASSWORD&lt;/font&gt;" style="ellipse;whiteSpace=wrap;html=1;fillColor=#d5e8d4;strokeColor=#82b366;fontSize=9;strokeWidth=1;fillStyle=hatch;" parent="1" vertex="1">
          <mxGeometry x="352" y="100" width="100" height="50" as="geometry" />
        </mxCell>
        <mxCell id="pXMp4Kn1TM848HMNzgxB-14" style="edgeStyle=none;rounded=0;orthogonalLoop=1;jettySize=auto;html=1;strokeColor=default;strokeWidth=1;fontSize=10;startArrow=none;startFill=0;endArrow=none;endFill=0;exitX=0.5;exitY=0;exitDx=0;exitDy=0;" parent="1" source="UH18t5QK1VoQTErADP8N-2" edge="1">
          <mxGeometry relative="1" as="geometry">
            <mxPoint x="20" y="360" as="targetPoint" />
            <mxPoint x="193.18019484660522" y="625.8578643762689" as="sourcePoint" />
          </mxGeometry>
        </mxCell>
        <mxCell id="1_dE9CeZX_-XwsKLI6GI-5" value="&lt;font style=&quot;font-size: 9px;&quot;&gt;SIGN UP&lt;br&gt;AS A CLIENT&lt;br&gt;&lt;/font&gt;" style="ellipse;whiteSpace=wrap;html=1;fillColor=#d5e8d4;strokeColor=#82b366;fontSize=9;strokeWidth=1;fillStyle=hatch;" parent="1" vertex="1">
          <mxGeometry x="440" y="290" width="100" height="50" as="geometry" />
        </mxCell>
        <mxCell id="1_dE9CeZX_-XwsKLI6GI-6" value="&amp;lt;&amp;lt;include&amp;gt;&amp;gt;" style="html=1;verticalAlign=bottom;labelBackgroundColor=none;endArrow=open;endFill=0;dashed=1;rounded=0;exitX=1;exitY=0.5;exitDx=0;exitDy=0;entryX=0;entryY=0.5;entryDx=0;entryDy=0;" parent="1" source="tnNtf27b05TNXS0torjV-19" target="1_dE9CeZX_-XwsKLI6GI-5" edge="1">
          <mxGeometry x="-0.0502" y="-3" width="160" relative="1" as="geometry">
            <mxPoint x="236.9599999999998" y="229" as="sourcePoint" />
            <mxPoint x="368.7000000000003" y="148.79999999999995" as="targetPoint" />
            <mxPoint as="offset" />
          </mxGeometry>
        </mxCell>
        <mxCell id="UH18t5QK1VoQTErADP8N-2" value="&lt;font size=&quot;1&quot; color=&quot;#333333&quot;&gt;POST A PROJECT&lt;br&gt;&lt;/font&gt;" style="ellipse;whiteSpace=wrap;html=1;fillColor=#f8cecc;strokeColor=#b85450;" parent="1" vertex="1">
          <mxGeometry x="250" y="544" width="120" height="40" as="geometry" />
        </mxCell>
        <mxCell id="_zcZhMx8JkVPg5F3RV6Y-3" value="&lt;font style=&quot;font-size: 9px;&quot;&gt;MANAGE PROJECTS&lt;br style=&quot;font-size: 9px;&quot;&gt;&lt;/font&gt;" style="ellipse;whiteSpace=wrap;html=1;fillColor=#dae8fc;strokeColor=#6c8ebf;fontSize=9;strokeWidth=1;fillStyle=hatch;" parent="1" vertex="1">
          <mxGeometry x="348" y="480" width="84" height="35" as="geometry" />
        </mxCell>
        <mxCell id="_zcZhMx8JkVPg5F3RV6Y-4" value="&amp;lt;&amp;lt;extends&amp;gt;&amp;gt;" style="endArrow=block;endFill=0;html=1;rounded=0;dashed=1;exitX=0;exitY=0.5;exitDx=0;exitDy=0;entryX=0.69;entryY=0.935;entryDx=0;entryDy=0;entryPerimeter=0;" parent="1" source="_zcZhMx8JkVPg5F3RV6Y-3" target="tnNtf27b05TNXS0torjV-22" edge="1">
          <mxGeometry x="-0.0012" width="160" relative="1" as="geometry">
            <mxPoint x="489" y="555" as="sourcePoint" />
            <mxPoint x="385" y="550" as="targetPoint" />
            <Array as="points" />
            <mxPoint as="offset" />
          </mxGeometry>
        </mxCell>
        <mxCell id="_zcZhMx8JkVPg5F3RV6Y-5" value="&lt;font style=&quot;font-size: 9px;&quot;&gt;YOUR PROJECT&lt;br style=&quot;font-size: 9px;&quot;&gt;&lt;/font&gt;" style="ellipse;whiteSpace=wrap;html=1;fillColor=#dae8fc;strokeColor=#6c8ebf;fontSize=9;strokeWidth=1;fillStyle=hatch;" parent="1" vertex="1">
          <mxGeometry x="444" y="450" width="96" height="50" as="geometry" />
        </mxCell>
        <mxCell id="_zcZhMx8JkVPg5F3RV6Y-6" value="&amp;lt;&amp;lt;extends&amp;gt;&amp;gt;" style="endArrow=block;endFill=0;html=1;rounded=0;dashed=1;exitX=0;exitY=0.5;exitDx=0;exitDy=0;entryX=1;entryY=1;entryDx=0;entryDy=0;" parent="1" source="_zcZhMx8JkVPg5F3RV6Y-5" target="tnNtf27b05TNXS0torjV-22" edge="1">
          <mxGeometry x="-0.0012" width="160" relative="1" as="geometry">
            <mxPoint x="354" y="415" as="sourcePoint" />
            <mxPoint x="250" y="410" as="targetPoint" />
            <Array as="points" />
            <mxPoint as="offset" />
          </mxGeometry>
        </mxCell>
        <mxCell id="_zcZhMx8JkVPg5F3RV6Y-10" style="rounded=0;orthogonalLoop=1;jettySize=auto;html=1;exitX=0;exitY=0;exitDx=0;exitDy=0;endArrow=none;endFill=0;" parent="1" source="_zcZhMx8JkVPg5F3RV6Y-7" edge="1">
          <mxGeometry relative="1" as="geometry">
            <mxPoint x="20" y="360" as="targetPoint" />
          </mxGeometry>
        </mxCell>
        <mxCell id="_zcZhMx8JkVPg5F3RV6Y-7" value="&lt;font size=&quot;1&quot;&gt;VIEW NOTIFICATION&lt;/font&gt;" style="ellipse;whiteSpace=wrap;html=1;fillColor=#f8cecc;strokeColor=#b85450;" parent="1" vertex="1">
          <mxGeometry x="210" y="634.5" width="106" height="45.5" as="geometry" />
        </mxCell>
        <mxCell id="_zcZhMx8JkVPg5F3RV6Y-8" value="CANCEL&lt;br&gt;NOTIFICATION" style="ellipse;whiteSpace=wrap;html=1;fillColor=#dae8fc;strokeColor=#6c8ebf;fontSize=9;strokeWidth=1;fillStyle=hatch;" parent="1" vertex="1">
          <mxGeometry x="399" y="700" width="80" height="40" as="geometry" />
        </mxCell>
        <mxCell id="_zcZhMx8JkVPg5F3RV6Y-9" value="&amp;lt;&amp;lt;extends&amp;gt;&amp;gt;" style="endArrow=block;endFill=0;html=1;rounded=0;dashed=1;exitX=0;exitY=0;exitDx=0;exitDy=0;" parent="1" source="_zcZhMx8JkVPg5F3RV6Y-8" target="_zcZhMx8JkVPg5F3RV6Y-7" edge="1">
          <mxGeometry x="-0.0091" width="160" relative="1" as="geometry">
            <mxPoint x="489.5" y="647.25" as="sourcePoint" />
            <mxPoint x="270" y="700" as="targetPoint" />
            <Array as="points" />
            <mxPoint as="offset" />
          </mxGeometry>
        </mxCell>
        <mxCell id="_zcZhMx8JkVPg5F3RV6Y-11" value="&lt;font style=&quot;font-size: 9px;&quot;&gt;SHARE&lt;br&gt;PROFILE&lt;br style=&quot;font-size: 9px;&quot;&gt;&lt;/font&gt;" style="ellipse;whiteSpace=wrap;html=1;fillColor=#dae8fc;strokeColor=#6c8ebf;fontSize=9;strokeWidth=1;fillStyle=hatch;" parent="1" vertex="1">
          <mxGeometry x="540" y="420" width="86" height="40" as="geometry" />
        </mxCell>
        <mxCell id="_zcZhMx8JkVPg5F3RV6Y-12" value="&amp;lt;&amp;lt;extends&amp;gt;&amp;gt;" style="endArrow=block;endFill=0;html=1;rounded=0;dashed=1;exitX=0;exitY=0.5;exitDx=0;exitDy=0;entryX=0.97;entryY=0.674;entryDx=0;entryDy=0;entryPerimeter=0;" parent="1" source="_zcZhMx8JkVPg5F3RV6Y-11" target="tnNtf27b05TNXS0torjV-22" edge="1">
          <mxGeometry x="-0.0012" width="160" relative="1" as="geometry">
            <mxPoint x="489" y="405" as="sourcePoint" />
            <mxPoint x="250" y="410" as="targetPoint" />
            <Array as="points" />
            <mxPoint as="offset" />
          </mxGeometry>
        </mxCell>
        <mxCell id="_zcZhMx8JkVPg5F3RV6Y-13" value="&lt;font style=&quot;font-size: 9px;&quot;&gt;ADD PROJECT&lt;br&gt;DESCRIPTION&lt;br style=&quot;font-size: 9px;&quot;&gt;&lt;/font&gt;" style="ellipse;whiteSpace=wrap;html=1;fillColor=#d5e8d4;strokeColor=#82b366;fontSize=9;strokeWidth=1;fillStyle=hatch;" parent="1" vertex="1">
          <mxGeometry x="440" y="544" width="90" height="40" as="geometry" />
        </mxCell>
        <mxCell id="_zcZhMx8JkVPg5F3RV6Y-14" value="&amp;lt;&amp;lt;include&amp;gt;&amp;gt;" style="html=1;verticalAlign=bottom;labelBackgroundColor=none;endArrow=open;endFill=0;dashed=1;rounded=0;exitX=1;exitY=0.5;exitDx=0;exitDy=0;entryX=0;entryY=0.5;entryDx=0;entryDy=0;" parent="1" target="_zcZhMx8JkVPg5F3RV6Y-13" edge="1">
          <mxGeometry x="-0.1429" width="160" relative="1" as="geometry">
            <mxPoint x="370" y="564" as="sourcePoint" />
            <mxPoint x="380" y="214" as="targetPoint" />
            <mxPoint as="offset" />
          </mxGeometry>
        </mxCell>
      </root>
    </mxGraphModel>
  </diagram>
</mxfile>
